<svg width="116" height="103" viewBox="0 0 116 103" fill="none" xmlns="http://www.w3.org/2000/svg">
<g id="Group 4">
<path id="workit" fill-rule="evenodd" clip-rule="evenodd" d="M77.2747 24.9999V19.6559L79.1947 17.5439L83.6427 24.9999H89.0827L82.7787 14.5679L89.1147 7.52788H83.1947L77.2747 13.8319V0.775879H72.4747V24.9999H77.2747ZM53.5556 24.1999C52.1476 24.9892 50.5796 25.3839 48.8516 25.3839C47.1236 25.3839 45.5503 24.9892 44.1316 24.1999C42.7129 23.4105 41.5823 22.3279 40.7396 20.9519C39.8969 19.5759 39.4756 18.0132 39.4756 16.2639C39.4756 14.4932 39.8969 12.9252 40.7396 11.5599C41.5823 10.1945 42.7129 9.11721 44.1316 8.32788C45.5503 7.53855 47.1236 7.14388 48.8516 7.14388C50.5796 7.14388 52.1476 7.53855 53.5556 8.32788C54.9636 9.11721 56.0889 10.1945 56.9316 11.5599C57.7743 12.9252 58.1956 14.4932 58.1956 16.2639C58.1956 18.0132 57.7743 19.5759 56.9316 20.9519C56.0889 22.3279 54.9636 23.4105 53.5556 24.1999ZM24.5921 13.7999L20.5281 24.9999H16.3681L10.3521 7.52788H15.3121L18.7041 17.6719L22.5121 7.52788H26.6721L30.4481 17.6719L33.8401 7.52788H38.8321L32.784 24.9999H28.6241L24.5921 13.7999ZM48.8516 21.0639C47.5503 21.0639 46.4889 20.6159 45.6676 19.7199C44.8463 18.8239 44.4356 17.6719 44.4356 16.2639C44.4356 14.8772 44.8463 13.7305 45.6676 12.8239C46.4889 11.9172 47.5503 11.4639 48.8516 11.4639C50.1529 11.4639 51.2089 11.9172 52.0196 12.8239C52.8303 13.7305 53.2356 14.8772 53.2356 16.2639C53.2356 17.6719 52.8303 18.8239 52.0196 19.7199C51.2089 20.6159 50.1529 21.0639 48.8516 21.0639ZM65.3672 15.5919V24.9999H60.5672V7.52788H65.0472V10.1519C65.4952 9.06388 66.1298 8.32255 66.9512 7.92788C67.7725 7.53321 68.7165 7.33588 69.7832 7.33588H70.8072V11.4959H69.3032C68.1298 11.4959 67.1805 11.8532 66.4552 12.5679C65.7298 13.2825 65.3672 14.2905 65.3672 15.5919ZM93.5983 1.15988V4.67988H91.6783V1.15988H93.5983ZM93.5983 24.9999V8.00788H91.6783V24.9999H93.5983ZM105.314 25.1599C105.015 25.1812 104.78 25.1919 104.61 25.1919C103.18 25.1919 102.087 24.7919 101.33 23.9919C100.572 23.1919 100.194 22.0239 100.194 20.4879V9.83188H96.9938V8.00788H98.2098C98.8285 8.00788 99.3138 7.81588 99.6658 7.43188C100.018 7.04788 100.194 6.52521 100.194 5.86388V4.03988H102.114V8.00788H105.826V9.83188H102.114V20.4879C102.114 20.9572 102.183 21.4159 102.322 21.8639C102.46 22.3119 102.732 22.6745 103.138 22.9519C103.543 23.2292 104.13 23.3679 104.898 23.3679C105.068 23.3679 105.276 23.3572 105.522 23.3359C105.767 23.3145 105.964 23.2932 106.114 23.2719V25.0319C105.879 25.0959 105.612 25.1385 105.314 25.1599Z" fill="#24053E"/>
<g id="Group 14">
<path id="Path" d="M18.8958 82.9999H1.10417C0.494167 82.9999 0 83.494 0 84.104V101.897C0 102.506 0.494167 103 1.10417 103H10.6833V95.2549H8.07667V92.2365H10.6833V90.0107C10.6833 87.4274 12.2608 86.0207 14.5658 86.0207C15.67 86.0207 16.6183 86.1032 16.895 86.1399V88.8399L15.2967 88.8407C14.0433 88.8407 13.8008 89.4365 13.8008 90.3099V92.2374H16.79L16.4008 95.2557H13.8008V103H18.8975C19.5058 103 20 102.506 20 101.896V84.104C20 83.494 19.5058 82.9999 18.8958 82.9999Z" fill="#24053E"/>
<path id="Shape" fill-rule="evenodd" clip-rule="evenodd" d="M106 82.9999C103.284 82.9999 102.944 83.0115 101.878 83.0599C98.2458 83.2265 96.2275 85.2415 96.0608 88.8765C96.0117 89.944 96 90.284 96 92.9999C96 95.7157 96.0117 96.0565 96.06 97.1232C96.2267 100.755 98.2417 102.773 101.877 102.94C102.944 102.988 103.284 103 106 103C108.716 103 109.057 102.988 110.123 102.94C113.752 102.773 115.775 100.758 115.939 97.1232C115.988 96.0565 116 95.7157 116 92.9999C116 90.284 115.988 89.944 115.94 88.8774C115.777 85.249 113.759 83.2274 110.124 83.0607C109.057 83.0115 108.716 82.9999 106 82.9999ZM106 84.8024C108.67 84.8024 108.987 84.8124 110.042 84.8607C112.752 84.984 114.017 86.2699 114.141 88.9599C114.189 90.014 114.198 90.3307 114.198 93.0007C114.198 95.6715 114.188 95.9874 114.141 97.0415C114.017 99.729 112.754 101.017 110.042 101.141C108.987 101.189 108.672 101.199 106 101.199C103.33 101.199 103.013 101.189 101.959 101.141C99.2425 101.017 97.9833 99.7249 97.86 97.0407C97.8117 95.9865 97.8017 95.6707 97.8017 92.9999C97.8017 90.3299 97.8125 90.014 97.86 88.959C97.9842 86.2699 99.2467 84.9832 101.959 84.8599C103.014 84.8124 103.33 84.8024 106 84.8024ZM100.865 92.9999C100.865 90.164 103.164 87.8649 106 87.8649C108.836 87.8649 111.135 90.164 111.135 92.9999C111.135 95.8365 108.836 98.1357 106 98.1357C103.164 98.1357 100.865 95.8357 100.865 92.9999ZM106 96.3332C104.159 96.3332 102.667 94.8415 102.667 92.9999C102.667 91.159 104.159 89.6665 106 89.6665C107.841 89.6665 109.333 91.159 109.333 92.9999C109.333 94.8415 107.841 96.3332 106 96.3332ZM110.137 87.6624C110.137 86.9999 110.675 86.4624 111.338 86.4624C112.001 86.4624 112.538 86.9999 112.538 87.6624C112.538 88.3249 112.001 88.8624 111.338 88.8624C110.675 88.8624 110.137 88.3249 110.137 87.6624Z" fill="#584D62"/>
<path id="Path_2" d="M68 87.1721C67.2642 87.4988 66.4733 87.7188 65.6433 87.8179C66.4908 87.3104 67.1417 86.5063 67.4475 85.5479C66.655 86.0179 65.7767 86.3596 64.8417 86.5438C64.0942 85.7463 63.0267 85.2479 61.8467 85.2479C59.1975 85.2479 57.2508 87.7196 57.8492 90.2854C54.44 90.1146 51.4167 88.4813 49.3925 85.9988C48.3175 87.8429 48.835 90.2554 50.6617 91.4771C49.99 91.4554 49.3567 91.2713 48.8042 90.9638C48.7592 92.8646 50.1217 94.6429 52.095 95.0388C51.5175 95.1954 50.885 95.2321 50.2417 95.1088C50.7633 96.7388 52.2783 97.9246 54.075 97.9579C52.35 99.3104 50.1767 99.9146 48 99.6579C49.8158 100.822 51.9733 101.501 54.29 101.501C61.9083 101.501 66.2125 95.0671 65.9525 89.2963C66.7542 88.7171 67.45 87.9946 68 87.1721Z" fill="#584D62"/>
</g>
</g>
</svg>
